<?xml version="1.0" encoding="UTF-8" standalone="no"?>
<!-- Created with Inkscape (http://www.inkscape.org/) -->

<svg
   width="277.93045"
   height="99.311867"
   viewBox="0 0 73.535766 26.276266"
   version="1.1"
   id="svg1"
   sodipodi:docname="logo-text.svg"
   inkscape:version="1.4.2 (ebf0e940d0, 2025-05-08)"
   xmlns:inkscape="http://www.inkscape.org/namespaces/inkscape"
   xmlns:sodipodi="http://sodipodi.sourceforge.net/DTD/sodipodi-0.dtd"
   xmlns="http://www.w3.org/2000/svg"
   xmlns:svg="http://www.w3.org/2000/svg">
  <sodipodi:namedview
     id="namedview1"
     pagecolor="#0a0a0a"
     bordercolor="#ffffff"
     borderopacity="1"
     inkscape:showpageshadow="0"
     inkscape:pageopacity="0"
     inkscape:pagecheckerboard="0"
     inkscape:deskcolor="#505050"
     inkscape:document-units="px"
     showguides="true"
     inkscape:zoom="2.5128392"
     inkscape:cx="23.678395"
     inkscape:cy="41.188469"
     inkscape:window-width="1366"
     inkscape:window-height="740"
     inkscape:window-x="0"
     inkscape:window-y="0"
     inkscape:window-maximized="1"
     inkscape:current-layer="layer1">
    <sodipodi:guide
       position="159.72471,-150.05581"
       orientation="0,-1"
       id="guide3"
       inkscape:locked="false" />
    <sodipodi:guide
       position="159.72471,-99.298439"
       orientation="0,-1"
       id="guide18"
       inkscape:locked="false" />
    <sodipodi:guide
       position="192.43501,-124.67713"
       orientation="0,-1"
       id="guide19"
       inkscape:locked="false" />
  </sodipodi:namedview>
  <defs
     id="defs1" />
  <g
     inkscape:label="Layer 1"
     inkscape:groupmode="layer"
     id="layer1"
     transform="translate(42.98275,-10.385696)">
    <path
       id="path120"
       style="font-variation-settings:'wght' 700;fill:#ffffff;fill-opacity:1;stroke:none;stroke-width:0.0355193;stroke-opacity:1"
       d="m -31.021781,10.388034 -4.491664,0.0093 1.639525,4.871683 c 0.901859,2.679395 1.691144,4.994748 1.753835,5.145333 0.302486,0.726605 0.285667,1.384356 -0.05294,2.0704 -0.212867,0.431275 -0.548359,0.77745 -0.959268,0.990292 -0.531665,0.275391 -0.305449,0.259881 -3.748884,0.259881 h -3.080758 l -0.178931,0.541453 c -0.09837,0.297921 -0.755755,2.323939 -1.460828,4.50216 -0.705074,2.178226 -1.304089,4.028393 -1.331356,4.111414 l -0.0497,0.15093 h 4.363125 c 4.122237,0 4.364221,-0.0035 4.387151,-0.06206 0.167132,-0.428058 1.951777,-5.845591 2.018381,-6.126987 0.168959,-0.713886 0.57641,-1.42977 1.12653,-1.97989 0.908225,-0.908224 2.202252,-1.376081 3.455649,-1.249009 0.261235,0.02649 1.281952,0.04082 2.915359,0.04082 h 2.513176 l -0.02519,-0.08001 c -0.231445,-0.734204 -4.275765,-13.179079 -4.286374,-13.189686 -0.0082,-0.0083 -2.036336,-0.01079 -4.506828,-0.0058 z M 8.7259743,17.552673 V 32.415479 H 11.401282 V 17.552673 Z m 5.6478227,0 v 14.862806 h 2.675307 V 17.552673 Z m -25.861014,4.034194 c -0.948382,0 -1.677466,0.162704 -2.187044,0.488266 -0.509578,0.311408 -0.884499,0.672416 -1.125132,1.082909 h -0.382355 v -1.273969 h -2.63285 v 14.777889 h 2.675307 v -5.456767 h 0.382357 c 0.155705,0.240643 0.360848,0.481153 0.615637,0.721783 0.268945,0.22647 0.615799,0.410638 1.04045,0.552186 0.438805,0.155728 0.976657,0.233518 1.61363,0.233518 0.849299,0 1.6349727,-0.205372 2.3568751,-0.615869 0.7219051,-0.424649 1.3022011,-1.040315 1.7410059,-1.847149 0.4388022,-0.806834 0.6580958,-1.783505 0.6580958,-2.930057 V 26.97995 c 0,-1.146554 -0.2192712,-2.123224 -0.6580958,-2.930055 -0.4388048,-0.806833 -1.0191008,-1.415659 -1.7410059,-1.826154 -0.7219024,-0.424649 -1.5075761,-0.636869 -2.3568751,-0.636869 z m 12.22995017,0 c -1.04746445,0 -1.98876547,0.212222 -2.82391057,0.636868 -0.8351425,0.424647 -1.4934858,1.040549 -1.974755,1.847383 -0.4812691,0.806831 -0.7217825,1.776428 -0.7217825,2.908826 v 0.339663 c 0,1.132396 0.2405184,2.101993 0.7217825,2.908827 0.4812692,0.806834 1.1396125,1.422499 1.974755,1.847146 0.8351451,0.424653 1.77644612,0.637102 2.82391057,0.637102 1.04746933,0 1.98877373,-0.212447 2.82391633,-0.637102 C 4.401792,31.650933 5.0599004,31.035268 5.5411684,30.228434 6.0224378,29.4216 6.2631812,28.452003 6.2631812,27.319607 v -0.339663 c 0,-1.132398 -0.2407434,-2.101995 -0.7220128,-2.908826 C 5.0599004,23.264284 4.401792,22.648382 3.5666495,22.223735 2.7315069,21.799086 1.7902025,21.586867 0.74273317,21.586867 Z m 24.28983983,0 c -1.047465,0 -1.988766,0.212222 -2.82391,0.636868 -0.835143,0.424647 -1.493254,1.040549 -1.974521,1.847383 -0.481269,0.806831 -0.72202,1.776428 -0.72202,2.908826 v 0.339663 c 0,1.132396 0.240743,2.101993 0.72202,2.908827 0.481267,0.806834 1.139378,1.422499 1.974521,1.847146 0.835144,0.424653 1.776445,0.637102 2.82391,0.637102 1.047472,0 1.988768,-0.212447 2.82391,-0.637102 0.835143,-0.424647 1.493486,-1.040312 1.974756,-1.847146 0.481269,-0.806834 0.721782,-1.776431 0.721782,-2.908827 v -0.339663 c 0,-1.132398 -0.240519,-2.101995 -0.721782,-2.908826 -0.48127,-0.806834 -1.139613,-1.422736 -1.974756,-1.847383 -0.835142,-0.424649 -1.776438,-0.636868 -2.82391,-0.636868 z m -37.326721,2.335415 c 0.820987,0 1.507627,0.269041 2.059669,0.806934 0.5520449,0.523731 0.8279285,1.295258 0.8279285,2.314415 v 0.212297 c 0,1.019157 -0.2758836,1.797524 -0.8279285,2.335412 -0.537889,0.523732 -1.224526,0.785703 -2.059669,0.785703 -0.820989,0 -1.507394,-0.261971 -2.059439,-0.785703 -0.552042,-0.537888 -0.828161,-1.316255 -0.828161,-2.335412 v -0.212297 c 0,-1.019157 0.276119,-1.790684 0.828161,-2.314415 0.552045,-0.537893 1.23845,-0.806934 2.059439,-0.806934 z m 13.03688117,0.04245 c 0.83514543,0 1.51447803,0.269039 2.03820893,0.806933 0.5378927,0.523729 0.8069315,1.281109 0.8069315,2.271956 v 0.212298 c 0,0.990846 -0.2690388,1.755063 -0.8069315,2.292957 -0.5378867,0.52373 -1.2172193,0.785701 -2.03820893,0.785701 -0.82098435,0 -1.50055238,-0.261971 -2.03843897,-0.785701 -0.5378917,-0.537894 -0.8066988,-1.302111 -0.8066988,-2.292957 v -0.212298 c 0,-0.990847 0.2688071,-1.748227 0.8066988,-2.271956 0.53788659,-0.537894 1.21745462,-0.806933 2.03843897,-0.806933 z m 24.28983983,0 c 0.835142,0 1.51471,0.269039 2.038444,0.806933 0.537887,0.523729 0.806699,1.281109 0.806699,2.271956 v 0.212298 c 0,0.990846 -0.268812,1.755063 -0.806699,2.292957 -0.53789,0.52373 -1.217453,0.785701 -2.038444,0.785701 -0.820985,0 -1.500321,-0.261971 -2.038209,-0.785701 -0.537887,-0.537894 -0.806931,-1.302111 -0.806931,-2.292957 v -0.212298 c 0,-0.990847 0.269044,-1.748227 0.806931,-2.271956 0.537888,-0.537894 1.217224,-0.806933 2.038209,-0.806933 z m -50.006916,0.735067 c -0.527531,0.01197 -1.056284,0.125015 -1.559039,0.341764 -1.141734,0.492224 -2.074548,1.571732 -2.38627,2.761858 -0.621986,2.37466 0.919849,4.765016 3.354867,5.201086 0.09767,0.01749 0.449398,0.02682 0.781504,0.02099 0.514101,-0.0093 0.655422,-0.02425 0.9511,-0.10241 1.698059,-0.44922 2.964246,-1.951238 3.111318,-3.690566 0.04934,-0.583529 -0.0072,-1.026673 -0.210658,-1.647224 -0.306932,-0.936056 -0.769823,-1.571558 -1.542941,-2.118543 -0.74499,-0.527085 -1.620658,-0.787188 -2.499881,-0.767042 z" />
  </g>
</svg>
